<svg xmlns="http://www.w3.org/2000/svg" xmlns:xlink="http://www.w3.org/1999/xlink" version="1.1" id="Ebene_1" x="0px" y="0px" width="100px" height="100px" viewBox="-18 -18 100 100" enable-background="new -18 -18 100 100" xml:space="preserve">
<path fill="#000000" d="M65.983,45.944H52.433c-5.531,4.475-12.267,7.11-19.531,7.11c-7.262,0-13.996-2.636-19.528-7.11H-0.174  c-5.588,0-10.16,4.57-10.16,10.159V77.5h86.476V56.104C76.14,50.515,71.568,45.944,65.983,45.944z"/>
<path fill="#000000" d="M32.901-16.5C18.035-16.5,5.982-3.729,5.982,13.943c0,17.673,12.053,32.001,26.919,32.001  c14.871,0,26.923-14.328,26.923-32.001C59.824-3.728,47.772-16.5,32.901-16.5z"/>
</svg>