<svg xmlns="http://www.w3.org/2000/svg" xmlns:xlink="http://www.w3.org/1999/xlink" version="1.1" id="Layer_1" x="0px" y="0px" width="100px" height="100px" viewBox="0 0 100 100" enable-background="new 0 0 100 100" xml:space="preserve">
<g>
	<path d="M59.708,37.06H46.832c-0.801,0-1.545,0.208-2.178,0.572l-4.892-9.677c-0.874-1.728-2.981-2.42-4.709-1.547l-0.209,0.105   c-1.727,0.874-2.419,2.981-1.546,4.709l10.921,21.604c0.113,0.223,0.247,0.428,0.396,0.614l1.167,7.624l3.171,31.592   c0,1.386,1.126,2.343,2.512,2.343h3.61c1.387,0,2.513-0.957,2.513-2.343l3.172-31.592h1.285c2.278,0,4.124-1.933,4.124-4.208   l-2.338-15.866C63.832,38.715,61.987,37.06,59.708,37.06z"/>
	<circle cx="53.271" cy="27.389" r="6.911"/>
	<path d="M53.272,16.046c0.762,0,1.381-0.619,1.381-1.381V6.381C54.653,5.618,54.034,5,53.272,5c-0.763,0-1.381,0.618-1.381,1.381   v8.284C51.892,15.427,52.51,16.046,53.272,16.046z"/>
	<path d="M43.793,18.388c0.256,0.442,0.72,0.69,1.197,0.69c0.234,0,0.472-0.06,0.689-0.186c0.661-0.381,0.887-1.226,0.505-1.886   l-4.142-7.174c-0.381-0.66-1.226-0.887-1.886-0.506c-0.661,0.382-0.887,1.226-0.505,1.887L43.793,18.388z"/>
	<path d="M66.389,9.327c-0.66-0.381-1.505-0.154-1.886,0.506l-4.142,7.174c-0.382,0.66-0.156,1.505,0.505,1.886   c0.217,0.126,0.455,0.186,0.688,0.186c0.478,0,0.941-0.248,1.197-0.69l4.143-7.174C67.275,10.553,67.049,9.709,66.389,9.327z"/>
</g>
</svg>