<svg xmlns:sodipodi="http://sodipodi.sourceforge.net/DTD/sodipodi-0.dtd" xmlns:cc="http://creativecommons.org/ns#" xmlns:inkscape="http://www.inkscape.org/namespaces/inkscape" xmlns:dc="http://purl.org/dc/elements/1.1/" xmlns:rdf="http://www.w3.org/1999/02/22-rdf-syntax-ns#" xmlns:svg="http://www.w3.org/2000/svg" xmlns="http://www.w3.org/2000/svg" xmlns:xlink="http://www.w3.org/1999/xlink" version="1.1" id="svg2987" inkscape:version="0.48.4 r9939" sodipodi:docname="items.svg" x="0px" y="0px" width="100px" height="100px" viewBox="296.547 501.681 100 100" enable-background="new 296.547 501.681 100 100" xml:space="preserve">
<sodipodi:namedview id="base" inkscape:window-maximized="0" inkscape:window-x="500" inkscape:window-y="116" inkscape:current-layer="layer1" inkscape:window-width="857" inkscape:pageopacity="0.0" inkscape:pageshadow="2" inkscape:document-units="px" inkscape:window-height="738" inkscape:zoom="0.175" pagecolor="#ffffff" bordercolor="#666666" inkscape:cy="846.36371" inkscape:cx="244.15516" borderopacity="1.0" showgrid="false">
	</sodipodi:namedview>
<path d="M393.547,531.348H344.99c1.532,16.628,6.779,21.129,11.097,24.825c3.57,3.056,8.46,7.24,8.46,15.508  c0,9.604-3.589,18.382-9.487,25.079h38.487c1.657,0,3-1.343,3-3v-59.412C396.547,532.691,395.205,531.348,393.547,531.348z"/>
<path d="M336.586,524.215h0.38c1.825,0,3.305-1.348,3.305-3.009v-6.529c0-1.662-1.48-3.009-3.305-3.009h-20.838  c-1.825,0-3.305,1.347-3.305,3.009v6.529c0,1.661,1.48,3.009,3.305,3.009h0.38c-0.938,41.104-19.961,34.727-19.961,47.466  c0,16.567,13.431,30,30,30s30-13.433,30-30C356.547,558.942,337.525,565.32,336.586,524.215z"/>
</svg>